<svg id="svg2" xmlns:rdf="http://www.w3.org/1999/02/22-rdf-syntax-ns#" xmlns="http://www.w3.org/2000/svg" height="18" width="18" version="1.1" xmlns:cc="http://creativecommons.org/ns#" xmlns:dc="http://purl.org/dc/elements/1.1/" viewBox="0 0 500.00001 500.00001">
 <g id="layer1" transform="translate(0 -552.36)">
  <path id="path3054" d="m235.2 990.98-19.24-20.241-4.151-2.4116-4.151-2.4116-1.3713-1.8127c-1.5142-2.0016-4.6892-6.6386-4.6892-6.8485 0-0.20483-1.1163-0.77641-2.4363-1.2474-1.045-0.3729-1.7435-0.86486-5.698-4.0129l-4.507-3.5879-1.2715 0.26294c-0.6993 0.14462-1.3157 0.31717-1.3697 0.38345-0.054 0.0663-0.23761 0.45673-0.40792 0.86768-0.36668 0.88472-0.66124 1.1623-1.2335 1.1623-0.30942 0-0.71595 0.31473-1.5207 1.1774-1.052 1.1276-1.1464 1.1874-2.2342 1.4154l-1.1358 0.2381-0.78421-0.77244c-0.71835-0.70753-0.8335-0.76319-1.3706-0.66242l-0.58639 0.11-0.42168-1.3348-0.42168-1.3348 1.0811-3.3926 1.0811-3.3926-2.4147-3.6772-2.4147-3.6772 0.25081-5.6731c0.13795-3.1202 0.25125-5.8026 0.25182-5.9608 0-0.16694-5.2974-5.2752-12.62-12.169l-12.621-11.881-6.2987 0.42689-6.2987 0.42689-3.0922-2.4415c-2.0522-1.6203-3.0184-2.4809-2.8728-2.5586 0.12069-0.0644 1.1534-0.28516 2.295-0.4906 1.1415-0.20544 2.1618-0.42025 2.2673-0.47734 0.13268-0.0718-0.0126-0.59002-0.47126-1.6812-0.36468-0.86756-0.72691-1.7391-0.80495-1.9368-0.13682-0.34654-0.0817-0.33914 1.5416 0.20755 0.92594 0.31184 1.7169 0.56697 1.7576 0.56697 0.0408 0 0.036-1.9164-0.0105-4.2586l-0.0846-4.2586 3.6356-6.1173 3.6356-6.1173 1.6622-6.8084 1.6622-6.8084 10.017-20.632 10.017-20.632 8.8636-4.4972 8.8636-4.4972 0.10434-4.386c0.0574-2.4123 0.2291-5.432 0.38159-6.7105 0.70352-5.8986 2.2526-11.349 5.0968-17.932l1.1477-2.6566 1.5812-19.261 1.5812-19.261-4.4326-13.034c-2.4379-7.1688-4.5144-13.122-4.6144-13.229-0.1-0.10711-11.633-6.7728-25.63-14.813l-25.448-14.618-6.876-0.90195c-3.7818-0.49607-6.9542-0.95032-7.0499-1.0094-0.0957-0.0591-2.903-3.5004-6.2385-7.6473-5.9274-7.3692-6.0749-7.5365-6.522-7.3949-0.25162 0.0797-0.95777 0.30481-1.5692 0.50032l-1.1117 0.35547-26.783-10.077c-14.731-5.5426-26.839-10.128-26.908-10.189-0.0685-0.0612-0.008-3.581 0.13361-7.8217 0.23587-7.0468 0.2352-7.8878-0.008-9.7713l-0.26576-2.061-0.937-1.0672-0.93699-1.0672-0.92335 0.0968c-0.50783 0.0532-2.5298 0.2112-4.4932 0.35102l-3.5699 0.25422-2.8602 2.8579-2.8602 2.8579-0.18385 3.4868c-0.10112 1.9177-0.21964 3.5242-0.26337 3.5699-0.0437 0.0457-1.805 0.97973-3.9138 2.0756l-3.8343 1.9925-2.4415 5.5624c-2.1268 4.8454-2.5034 5.5931-2.9216 5.8007-0.61668 0.30611-15.579 6.2996-15.623 6.2581-0.0181-0.0172 0.45344-4.0637 1.0479-8.9923 1.0512-8.7154 1.0736-8.9843 0.81944-9.8127-0.2583-0.84173-0.25362-0.88351 0.39982-3.5699 0.36365-1.495 1.5979-8.2555 2.7428-15.023 1.9921-11.776 2.0713-12.334 1.842-12.984l-0.23956-0.67898 2.8329-2.5856 2.8329-2.5856 1.2402 0.66898 1.2402 0.66899 3.0968-1.6204c1.7032-0.89124 3.4077-1.7325 3.7878-1.8695 1.0539-0.37988 2.6408-2.2242 3.4632-4.025 0.36454-0.79823 0.72553-1.452 0.80218-1.4529 0.0767-0.00083 1.628 0.92616 3.4474 2.06 3.298 2.0553 3.3119 2.0619 4.5778 2.1805 2.2016 0.20631 4.7756 0.0005 6.3624-0.50858 1.6841-0.54034 3.7371-1.4694 5.5934-2.5311 1.3403-0.7666 1.3635-0.79105 1.7982-1.8992 0.35607-0.90756 0.60104-1.2504 1.279-1.7903 0.60064-0.47824 0.99562-0.66772 1.3919-0.66772 0.30432 0 0.94834-0.16644 1.4312-0.36987 0.82399-0.34717 1.1173-0.36981 4.7798-0.36898 6.3767 0.001 12.783 0.76982 13.781 1.653 0.13698 0.12113 3.3123 1.4666 7.0563 2.99s6.9435 2.8427 7.1101 2.9318c0.28706 0.15363 17.942 14.641 21.117 17.328 4.692 3.9712 11.565 9.2223 15.774 12.052 5.0652 3.4055 9.8499 6.0224 16.069 8.7887 1.3035 0.57979 2.0928 1.0607 2.9057 1.7706 0.61388 0.53602 1.6225 1.2991 2.2414 1.6958l1.1252 0.72121 1.1597-0.42817 1.1597-0.42818 3.5265 1.5475c7.4191 3.2557 12.617 5.8286 18.055 8.9376 3.3001 1.8866 8.8002 5.2863 8.8002 5.4397 0 0.0561-0.42963 0.23629-0.95473 0.40051-0.52511 0.16422-1.1173 0.38334-1.316 0.48693l-0.36129 0.18836 0.5571 1.2008 0.55709 1.2008 1.1325-0.43967c1.448-0.56217 3.2077-0.6048 4.4639-0.10814 0.46244 0.18282 2.4798 1.5213 4.4831 2.9744 7.9349 5.7556 17.39 11.812 24.231 15.521 4.985 2.7026 13.19 6.6089 17.766 8.4586 0.73058 0.29529 3.4952 1.5709 6.1435 2.8347 4.0775 1.9458 5.276 2.4378 7.8232 3.2118 12.841 3.9018 22.331 7.3533 39.083 14.214 18.778 7.6902 28.786 11.51 37.027 14.133 1.8797 0.59815 3.1199 1.1016 3.9509 1.604 1.0296 0.62242 1.9042 0.92795 5.8341 2.038 3.8844 1.0972 4.7519 1.2907 5.4304 1.2114 0.66795-0.0781 0.88653-0.032 1.2642 0.26671 0.25114 0.19862 0.46505 0.44909 0.47536 0.55662 0.0103 0.10753 0.45783 0.59886 0.99447 1.0919l0.97572 0.89636 0.37537-0.47802c1.0227-1.3024 0.8906-1.2449 2.4509-1.0652 0.77624 0.0895 3.2102 0.2119 5.4088 0.27211 3.7809 0.10356 4.0597 0.0903 5.1473-0.2443 0.63242-0.1946 1.3611-0.49506 1.6194-0.66775 0.46103-0.30827 0.48802-0.30807 1.4944 0.0103 0.56367 0.17836 1.594 0.36552 2.2897 0.4159 1.1248 0.0814 1.3702 0.0433 2.2168-0.34424 0.60027-0.2748 1.3011-0.79824 1.8971-1.4169l0.94521-0.98108 2.2343-0.1726c2.1443-0.16566 2.2477-0.19069 2.5664-0.62088 0.80206-1.0827 0.70343-1.0415 3.1173-1.302l2.2871-0.24684 4.4831-2.3505c2.4657-1.2928 4.6268-2.4731 4.8026-2.623 0.17575-0.14985 0.7386-1.0715 1.2508-2.0481l0.9312-1.7756 3.3529-2.4856c1.8441-1.3671 3.5135-2.6374 3.7097-2.8229 0.19628-0.18554 0.59367-1.0481 0.88309-1.9169l0.52624-1.5795 0.86034-0.40437c0.88322-0.41512 1.7736-1.1474 1.7736-1.4587 0-0.0964 0.11727-0.57867 0.2606-1.0717 0.25979-0.89362 0.26879-0.90228 2.8642-2.7567 1.5022-1.0733 3.0439-2.3323 3.6444-2.9761 0.57245-0.6137 2.112-2.0906 3.4211-3.282l2.3803-2.1662 0.11505-1.5241c0.0633-0.83826 0.22743-1.7935 0.36476-2.1228 0.2661-0.63804 1.1782-1.6789 1.4692-1.6766 0.0962 0.00083 0.53689 0.45522 0.97924 1.0099 0.73588 0.92279 2.5432 2.3095 3.0101 2.3095 0.33618 0 2.9514-1.6388 4.0509-2.5385 0.58826-0.48136 1.309-1.2751 1.6242-1.7887l0.56665-0.92338-0.987-2.8286-0.98702-2.8286 1.1062-1.1066 1.1062-1.1066-0.0101-0.95282c-0.0138-1.2973-0.78149-2.817-1.9927-3.9441-0.62692-0.58344-0.90185-0.96531-0.89931-1.2491 0.005-0.57779 0.52627-1.6556 1.1365-2.3506 0.40675-0.46327 0.57442-0.8805 0.77167-1.9203 0.19346-1.0199 0.5971-2.0411 1.7378-4.3967 0.81718-1.6876 1.5649-3.4214 1.6617-3.8531 0.52178-2.3282 1.373-4.0741 3.393-6.9591l1.2622-1.8028-0.28286-1.518c-0.17893-0.96024-0.28644-2.4027-0.29259-3.9256-0.009-2.1652 0.0275-2.4828 0.35955-3.1548 0.66114-1.3378 1.2595-1.8947 2.8593-2.6614 0.82697-0.39627 1.5036-0.76591 1.5036-0.82143 0-0.0555-0.42199-0.30791-0.93777-0.56086l-0.93775-0.45992 0.7302-0.75703c0.93661-0.97101 1.962-1.4507 2.7812-1.301 0.79807 0.14584 1.9136 0.80612 2.8642 1.6954l0.76911 0.7194 1.4749-0.35274c1.124-0.26883 1.7865-0.33194 2.7848-0.2653l1.3099 0.0874 1.1265 1.1178 1.1265 1.1178 1.2752-0.60561c0.88534-0.42045 1.5111-0.60725 2.0467-0.61098 0.73781-0.005 0.85282-0.0771 2.6366-1.6501l1.8651-1.6447 2.9825 1.8257 2.9825 1.8257 1.7535 3.4038 1.7535 3.4038-1.2294 2.872c-1.0934 2.5545-1.2424 3.0291-1.3477 4.2926l-0.11832 1.4206 1.5232 2.1305 1.5232 2.1305-0.098 1.9939-0.098 1.9939 1.2913 0.93392 1.2913 0.93392 1.397 3.0084c0.76833 1.6546 1.5155 3.1097 1.6604 3.2334 0.14488 0.12377 1.2851 0.83531 2.5339 1.5812 1.9622 1.172 2.2834 1.4234 2.3661 1.8516 0.0526 0.27252 0.13865 0.71829 0.1912 0.99059 0.0802 0.41562 0.20682 0.52293 0.78869 0.66848 3.1154 0.7793 4.285 1.767 6.3887 5.395l1.4442 2.4906 2.3639 1.5563 2.3639 1.5563-0.5067 0.63974-0.50667 0.63974 0.52733 0.76646c0.29004 0.42155 0.86204 0.96508 1.2711 1.2078 0.40908 0.24276 0.8506 0.51621 0.98119 0.60767 0.13058 0.0915 0.83036 2.308 1.5551 4.9255l1.3176 4.7592-0.5848 1.7464-0.58481 1.7464 0.42802 1.7761c0.40903 1.6973 0.46872 1.82 1.3454 2.767 0.58703 0.63406 0.88712 1.0897 0.83339 1.2654-0.17884 0.58471-0.76405 3.2291-0.72093 3.2577 0.025 0.0165 0.29435 0.20207 0.59849 0.41224l0.55295 0.38213-0.11453 2.0132-0.11454 2.0132-0.99004 1.8695-0.99003 1.8695 1.0039 2.6642 1.0039 2.6642-1.4677 3.2627-1.4677 3.2627-0.79609 0.25661c-1.1838 0.3816-1.4401 0.82737-1.3968 2.4301 0.0587 2.1759 0.0505 2.2873-0.21592 2.9099-0.20871 0.48775-0.61763 0.82546-2.1821 1.802l-1.9252 1.2018-0.8537 1.5789c-0.81105 1.5-0.8984 1.5987-1.7488 1.9748-1.0099 0.44662-0.97022 0.16402-0.36603 2.6092l0.32095 1.2989-0.48884 0.55675c-0.26885 0.30622-0.54073 0.793-0.60414 1.0817-0.0873 0.39776-0.39086 0.72605-1.2523 1.3546-1.0892 0.79474-1.145 0.86915-1.3258 1.7704-0.10384 0.51745-0.22864 1.1114-0.27731 1.3198-0.052 0.22271-0.54273 0.7003-1.1899 1.158-0.60579 0.42845-1.5497 1.1245-2.0977 1.5467-0.54793 0.42224-1.6784 1.2233-2.5122 1.78-1.1908 0.79524-1.701 1.2668-2.379 2.199l-0.86308 1.1866 0.19247 0.80235c0.11319 0.47183 0.14575 1.1763 0.079 1.7102-0.0968 0.77496-0.21427 1.006-0.80222 1.5783-0.62947 0.61269-0.80067 0.68575-1.9876 0.8482-0.71436 0.0978-1.3617 0.17777-1.4386 0.17777s-0.3627 0.36228-0.63514 0.80506c-0.4705 0.76464-0.53999 0.81042-1.3841 0.91179-0.48879 0.0587-1.0957 0.10736-1.3486 0.10815-0.25294 0-0.76007 0.19093-1.1269 0.42253-0.41142 0.2597-1.3169 0.55353-2.3628 0.76674-1.4756 0.30082-1.7956 0.42924-2.4648 0.98926-0.49168 0.41148-1.3001 0.83291-2.2416 1.1686-0.8099 0.28876-1.5597 0.63122-1.6663 0.76105-0.10655 0.12981-0.24353 0.59806-0.30439 1.0405-0.1414 1.0281-0.31403 1.231-1.3283 1.5611-0.45661 0.14862-0.92451 0.33014-1.0398 0.40336-0.11528 0.0732-0.3578 0.91092-0.53893 1.8615l-0.32934 1.7284-1.4301 1.4368-1.4301 1.4368 0.18926 0.88244 0.18925 0.88244-1.1174 1.126-1.1174 1.126-1.0412-0.58228-1.0412-0.58229-1.1916 0.79398-1.1916 0.79396-1.6428 4.719c-1.2338 3.5442-1.791 4.9208-2.238 5.5298-0.59503 0.8106-0.59514 0.81113-0.48307 2.096 0.10481 1.2015 0.0789 1.3593-0.39871 2.4237l-0.51082 1.1385 0.60221 1.2833c0.57898 1.2338 0.64821 1.3096 1.7942 1.9653 0.65558 0.37509 1.8183 0.86946 2.5838 1.0986 0.76554 0.22913 1.4093 0.43561 1.4306 0.4588 0.0867 0.0947 0.39234 1.356 0.34098 1.4073-0.0305 0.0305-0.25783-0.0214-0.50513-0.11545-0.37446-0.14236-0.57276-0.0988-1.1862 0.26074-0.4104 0.24053-0.77177 0.58991-0.81602 0.78896-0.0437 0.19649-0.3451 1.7576-0.66985 3.4692l-0.59044 3.1118 0.52214 1.2052c0.28716 0.66286 0.60809 1.2963 0.71316 1.4077 0.10505 0.11137 0.7779 0.52232 1.4952 0.91323l1.3042 0.71074 0.72364 1.705 0.72364 1.705-0.4898 1.3284-0.48981 1.3284 0.49479 1.2455 0.49478 1.2455-0.25085 1.6985c-0.28089 1.9018-0.18032 1.7613-2.1411 2.9919l-1.2672 0.79525 0.50548 0.73469c0.47476 0.69005 0.49437 0.77871 0.32284 1.46-0.13255 0.52642-0.13282 1.0834-0.002 2.0313l0.18164 1.306-0.7557 0.76724-0.75568 0.76724 0.26106 3.2246 0.26107 3.2246 0.73958 1.3678 0.73956 1.3678-0.91375 1.5069-0.91378 1.5069 0.91123 2.0823c0.8855 2.0235 0.90397 2.0964 0.65368 2.5803-0.14165 0.27393-0.23336 0.51383-0.20379 0.53312 0.0296 0.0193 0.7447 0.57919 1.5892 1.2442 1.6419 1.293 1.5778 1.169 1.2538 2.4258-0.0471 0.18265-0.35027 0.60825-0.6737 0.94579-0.58368 0.60914-0.58589 0.61701-0.29678 1.0582l0.29127 0.44452-1.2701 1.2776c-1.1153 1.1219-1.4081 1.322-2.4026 1.6423l-1.1325 0.36476-0.10528 0.76794c-0.0579 0.42238-0.10525 0.95102-0.10525 1.1748 0 0.25477-0.31483 0.75809-0.84234 1.3467-0.94667 1.0562-1.9727 3.0584-2.3963 4.6758-0.15545 0.5936-0.31779 1.9385-0.36074 2.9887-0.0749 1.8303-0.0545 1.9817 0.49166 3.6529 0.31339 0.95888 0.76472 2.2501 1.003 2.8693l0.43322 1.1259-1.9454 1.4268c-2.7279 2.0006-4.1342 3.4047-4.2812 4.2744-0.0628 0.37171-0.29936 0.91863-0.5257 1.2154l-0.4115 0.53951 0.56281 0.78353c0.42814 0.59606 0.77998 0.87069 1.4704 1.1478l0.90761 0.36426 0.0469 1.1381 0.0469 1.1381-1.5454 1.5369c-1.4368 1.4289-1.6255 1.5598-2.6844 1.8626-0.62644 0.17914-1.1688 0.35554-1.2053 0.39202-0.0365 0.0365 0.0108 0.41016 0.10491 0.83039 0.16622 0.74171 0.14897 0.80073-0.58923 2.0166l-0.76046 1.2526 0.50407 1.32 0.50405 1.32-0.40544 1.192-0.40544 1.1921 0.74531 1.2276c0.69324 1.1419 0.74531 1.308 0.74531 2.3782 0 0.96208 0.0519 1.1783 0.31676 1.3201 0.21344 0.11423 0.56301 0.90618 1.0717 2.4281l0.75499 2.2585-0.50373 1.2722c-0.27706 0.69971-0.80597 1.8212-1.1754 2.4923l-0.67163 1.22 1.0168 1.026 1.0168 1.026v1.203c0 1.9742 0.56072 2.9805 3.0799 5.527 1.137 1.1494 2.0674 2.1698 2.0674 2.2675 0 0.0978-0.37504 0.44715-0.83343 0.77646l-0.83341 0.59876 0.25592 0.49487c0.14074 0.27219 0.81486 0.9156 1.498 1.4298l1.2422 0.93491-0.47464 0.85124c-0.26105 0.46819-0.83212 1.5237-1.269 2.3456-0.43692 0.82191-1.0448 1.9486-1.3508 2.5038l-0.55637 1.0095 1.1565 0.79022c1.8086 1.2358 2.6269 2.3613 3.2334 4.4475l0.27121 0.93293-1.0906 1.8373-1.0906 1.8373 0.67465 1.3418 0.67466 1.3418-0.5136 0.89768-0.51359 0.89768 0.34488 1.1581c0.34048 1.1433 0.34153 1.2058 0.0831 4.9042l-0.2618 3.7461 2.1746 6.6001c1.196 3.63 2.2061 6.6928 2.2445 6.8061 0.0494 0.14567 0.43191 0.041 1.3059-0.35727 1.2234-0.55754 1.237-0.55964 1.3319-0.20601 0.0527 0.19649 0.0969 0.81383 0.0981 1.3719 0.002 0.81578-0.0806 1.1367-0.42066 1.6378l-0.42294 0.62325 1.7337 5.1982 1.7337 5.1982-0.77109 0.097c-0.42412 0.053-5.2169 0.5442-10.651 1.0908l-9.8794 0.9937-50.524 0.9123-50.524 0.9123-4.4761 3.4872-4.4761 3.4873-5.6498-0.7504-5.6498-0.7504-0.73188 0.5035-0.73189 0.5036h-3.1151-3.1151l-3.1861 0.8249-3.1861 0.8249-15.669 0.915c-8.6181 0.5033-16.239 0.9609-16.935 1.017l-1.266 0.1019-19.24-20.241z" fill-opacity="0.6" fill="#f0f5fa"/>
 </g>
</svg>
