<?xml version="1.0" standalone="no"?>
<!DOCTYPE svg PUBLIC "-//W3C//DTD SVG 1.1//EN" "http://www.w3.org/Graphics/SVG/1.1/DTD/svg11.dtd">
<svg xmlns="http://www.w3.org/2000/svg">
<metadata>Copyright (C) 2017 by original authors @ fontello.com</metadata>
<defs>
<font id="cagicon" horiz-adv-x="1000" >
<font-face font-family="cagicon" font-weight="400" font-stretch="normal" units-per-em="1000" ascent="850" descent="-150" />
<missing-glyph horiz-adv-x="1000" />
<glyph glyph-name="youtube-play" unicode="&#xe800;" d="M417 163v375l250-188m166 317c-25 8-179 16-333 16-154 0-308-8-333-15-65-22-84-168-84-318 0-150 19-296 84-317 25-8 179-16 333-16 154 0 308 8 333 16 65 21 84 167 84 317 0 150-19 295-84 317z" horiz-adv-x="1000" />

<glyph glyph-name="account" unicode="&#xe801;" d="M500 683c92 0 167-74 167-166 0-92-75-167-167-167-92 0-167 75-167 167 0 92 75 166 167 166m0-416c184 0 333-75 333-167v-83h-666v83c0 92 149 167 333 167z" horiz-adv-x="1000" />

<glyph glyph-name="account-circle" unicode="&#xe802;" d="M500 50c-104 0-196 53-250 133 1 84 167 130 250 130 83 0 249-46 250-130-54-80-146-133-250-133m0 592c69 0 125-56 125-125 0-69-56-125-125-125-69 0-125 56-125 125 0 69 56 125 125 125m0 125c-230 0-417-187-417-417 0-230 187-417 417-417 230 0 417 187 417 417 0 230-188 417-417 417z" horiz-adv-x="1000" />

<glyph glyph-name="ambulance" unicode="&#xe803;" d="M750 79c35 0 63 28 63 63 0 34-28 62-63 62-35 0-62-28-62-62 0-35 27-63 62-63m63 375h-105v-104h186l-81 104m-563-375c35 0 63 28 63 63 0 34-28 62-63 62-35 0-62-28-62-62 0-35 27-63 62-63m583 438l125-167v-208h-83c0-69-56-125-125-125-69 0-125 56-125 125h-250c0-69-56-125-125-125-69 0-125 56-125 125h-83v458c0 46 37 83 83 83h583v-166h125m-500 83v-125h-125v-83h125v-125h84v125h125v83h-125v125h-84z" horiz-adv-x="1000" />

<glyph glyph-name="arrow-down" unicode="&#xe804;" d="M458 683h84v-500l229 230 59-60-330-330-330 330 59 60 229-230v500z" horiz-adv-x="1000" />

<glyph glyph-name="arrow-left" unicode="&#xe805;" d="M833 392v-84h-500l230-229-60-59-330 330 330 330 60-59-230-229h500z" horiz-adv-x="1000" />

<glyph glyph-name="arrow-right" unicode="&#xe806;" d="M167 392v-84h500l-229-229 59-59 330 330-330 330-59-59 229-229h-500z" horiz-adv-x="1000" />

<glyph glyph-name="arrow-up" unicode="&#xe807;" d="M542 17h-84v500l-229-229-59 59 330 330 330-330-59-59-229 229v-500z" horiz-adv-x="1000" />

<glyph glyph-name="bank" unicode="&#xe808;" d="M479 808l-396-208v-83h792v83m-208-167v-291h125v291m-709-500h792v125h-792m334 375v-291h125v291m-375 0v-291h125v291h-125z" horiz-adv-x="1000" />

<glyph glyph-name="beach" unicode="&#xe809;" d="M110-70c0 47 0 47-49 47s-49 0-49 47v48h239 239l208 113c115 61 212 112 217 112 4 0 17-18 28-40 19-39 19-40-10-53-25-11-29-19-22-46 16-67 28-86 53-86 21 0 25-8 25-48 0-47 0-47-49-47s-49 0-49-47c0-48 0-48-49-48s-49 0-49 48v47h-293-293v-47c0-48 0-48-49-48s-48 0-48 48z m719 157c-3 51-16 54-78 19l-61-34 70 0c48 0 70 4 69 15z m-426 222v190h-56c-31 0-54 4-52 10 23 57 151 310 156 310s134-253 157-310c2-6-21-10-52-10h-56v-190-190h-49-48v190z m-278 235c-56 23-101 45-101 49 0 7 332 180 336 176 2-2-28-63-65-136l-69-131-101 42z m481 93c-39 75-66 135-60 132 51-21 333-171 333-177 0-5-15-13-34-20s-64-25-101-42l-68-29-70 136z" horiz-adv-x="1000" />

<glyph glyph-name="binoculars" unicode="&#xe80a;" d="M458 600h84v-292h-84v292m-83-583c0-23-19-42-42-42h-125c-23 0-41 19-41 42v208l83 375h167v-292c0-23-19-41-42-41v-250m42 625h-125v83h125v-83m208-625v250c-23 0-42 18-42 41v292h167l83-375v-208c0-23-18-42-41-42h-125c-23 0-42 19-42 42m-42 625v83h125v-83h-125z" horiz-adv-x="1000" />

<glyph glyph-name="book-open-page-variant" unicode="&#xe80b;" d="M792 767l-209-188v-458l209 187v459m-521-125c-81 0-169-17-229-63v-611c0-10 10-21 21-21 4 0 6 3 10 3 56 27 137 46 198 46 81 0 169-17 229-63 56 36 158 63 229 63 69 0 140-13 198-44 4-2 6-2 11-2 10 0 20 11 20 21v608c-25 19-52 31-83 42v-83l0-230v-250c-46 15-96 21-146 21-71 0-173-27-229-62v291l0 188v83c-60 46-148 63-229 63v0z" horiz-adv-x="1000" />

<glyph glyph-name="book-open-variant" unicode="&#xe80c;" d="M875 642c-46 14-97 21-146 21-81 0-169-17-229-63-60 46-148 63-229 63-81 0-169-17-229-63v-610c0-11 10-21 21-21 4 0 6 2 10 2 56 27 137 46 198 46 81 0 169-17 229-63 56 36 158 63 229 63 69 0 140-13 198-44 4-2 6-2 11-2 10 0 20 10 20 21v608c-25 19-52 31-83 42m0-563c-46 15-96 21-146 21-71 0-173-27-229-62v479c56 35 158 62 229 62 50 0 100-6 146-21v-479z" horiz-adv-x="1000" />

<glyph glyph-name="briefcase" unicode="&#xe80d;" d="M357 707h286v72h-286v-72z m643-357v-268c0-49-40-89-89-89h-822c-49 0-89 40-89 89v268h375v-89c0-20 16-36 36-36h178c20 0 36 16 36 36v89h375z m-429 0v-71h-142v71h142z m429 268v-214h-1000v214c0 49 40 89 89 89h197v89c0 30 24 54 53 54h322c29 0 53-24 53-54v-89h197c49 0 89-40 89-89z" horiz-adv-x="1000" />

<glyph glyph-name="briefcase-download" unicode="&#xe80e;" d="M500 58l-208 209h125v166h166v-166h125m-291 416h166v-83h-166m416 0h-166v83l-84 84h-166l-84-84v-83h-166c-47 0-84-37-84-83v-459c0-45 38-83 84-83h666c46 0 84 38 84 83v459c0 46-38 83-84 83z" horiz-adv-x="1000" />

<glyph glyph-name="business" unicode="&#xe80f;" d="M750 225h-83v-83h83m0 250h-83v-84h83m83-250h-333v84h83v83h-83v83h83v84h-83v83h333m-416 83h-84v84h84m0-250h-84v83h84m0-250h-84v83h84m0-250h-84v84h84m-167 416h-83v84h83m0-250h-83v83h83m0-250h-83v83h83m0-250h-83v84h83m250 416v167h-417v-750h834v583h-417z" horiz-adv-x="1000" />

<glyph glyph-name="calendar" unicode="&#xe810;" d="M792 58h-584v459h584m-125 291v-83h-334v83h-83v-83h-42c-46 0-83-37-83-83v-584c0-45 38-83 83-83h584c46 0 83 38 83 83v584c0 46-37 83-83 83h-42v83m-42-458h-208v-208h208v208z" horiz-adv-x="1000" />

<glyph glyph-name="calendar-blank" unicode="&#xe811;" d="M792 58h-584v459h584m-125 291v-83h-334v83h-83v-83h-42c-46 0-83-37-83-83v-584c0-45 38-83 83-83h584c46 0 83 38 83 83v584c0 46-37 83-83 83h-42v83" horiz-adv-x="1000" />

<glyph glyph-name="calendar-today" unicode="&#xe812;" d="M292 433h208v-208h-208m500-167h-584v459h584m0 208h-42v83h-83v-83h-334v83h-83v-83h-42c-46 0-83-37-83-83v-584c0-45 38-83 83-83h584c46 0 83 38 83 83v584c0 46-37 83-83 83z" horiz-adv-x="1000" />

<glyph glyph-name="castle" unicode="&#xe813;" d="M83 308h84v-83h83v83h83v-83h84v83h83v-83h83v208l125 125v250h84l166-83-166-83v-84l125-125v-500h-459v125c0 46-37 84-83 84-46 0-83-38-83-84v-125h-209v375m667 125c-23 0-42-22-42-50v-75h84v75c0 28-19 50-42 50z" horiz-adv-x="1000" />

<glyph glyph-name="cave" unicode="&#xe814;" d="M51 33c76 353 141 547 200 595 26 22 64 6 97-41l28-41 33 104c32 106 71 184 93 184 36 0 106-162 155-364 20-78 38-141 41-141 4 0 19 32 35 71 30 76 53 104 76 90 35-21 117-276 158-492 7-40 16-84 19-99 6-27 5-27-138-27h-145l-14 70c-26 121-109 218-186 218-78 0-161-97-186-218l-15-70h-143-143l35 161z" horiz-adv-x="1000" />

<glyph glyph-name="cellphone-basic" unicode="&#xe815;" d="M625 767c-23 0-42-19-42-42v-125h-166c-47 0-84-37-84-83v-500c0-47 37-84 84-84h208c46 0 83 37 83 84v500c0 31-16 57-41 71v137c0 23-19 42-42 42m-208-250h208v-209h-208v209m0-292h41v-42h-41v42m83 0h42v-42h-42v42m83 0h42v-42h-42v42m-166-83h41v-42h-41v42m83 0h42v-42h-42v42m83 0h42v-42h-42v42m-166-84h41v-41h-41v41m83 0h42v-41h-42v41m83 0h42v-41h-42v41z" horiz-adv-x="1000" />

<glyph glyph-name="check" unicode="&#xe816;" d="M875 558l-500-500-229 230 59 58 170-170 441 441 59-59z" horiz-adv-x="1000" />

<glyph glyph-name="chevron-double-down" unicode="&#xe817;" d="M691 617l59-59-250-250-250 250 59 59 191-191 191 191m0-250l59-59-250-250-250 250 59 59 191-191 191 191z" horiz-adv-x="1000" />

<glyph glyph-name="chevron-down" unicode="&#xe818;" d="M309 493l191-192 191 192 59-60-250-250-250 250 59 60z" horiz-adv-x="1000" />

<glyph glyph-name="chevron-left" unicode="&#xe819;" d="M642 159l-191 191 191 191-59 59-250-250 250-250 59 59z" horiz-adv-x="1000" />

<glyph glyph-name="chevron-right" unicode="&#xe81a;" d="M358 159l191 191-191 191 59 59 250-250-250-250-59 59z" horiz-adv-x="1000" />

<glyph glyph-name="chevron-up" unicode="&#xe81b;" d="M309 208l191 191 191-191 59 59-250 250-250-250 59-59z" horiz-adv-x="1000" />

<glyph glyph-name="church" unicode="&#xe81c;" d="M458 767h84v-84h83v-83h-83v-142l375-150v-83l-84 33v-325h-250v209c0 46-37 83-83 83-46 0-83-37-83-83v-209h-250v325l-84-33v83l375 150v142h-83v83h83v84m-208-750h83v208l-41 42-42-42v-208m417 0h83v208l-42 42-41-42v-208z" horiz-adv-x="1000" />

<glyph glyph-name="citizen" unicode="&#xe81d;" d="M14-61c0 70 54 142 146 193 60 34 76 38 169 38s110-4 170-38c91-51 145-123 145-193v-54h-315-315v54z m243 354c-149 79-112 294 55 314 89 11 171-56 182-148 16-126-125-224-237-166z m339 262c0 187 0 192 29 221 28 28 38 30 165 30 126 0 136-2 164-30 27-27 29-39 29-140s-2-112-29-140c-28-27-39-29-142-29h-112l-52-51-52-51v190z" horiz-adv-x="1000" />

<glyph glyph-name="city" unicode="&#xe81e;" d="M792 225h-84v83h84m0-250h-84v84h84m-250 416h-84v84h84m0-250h-84v83h84m0-250h-84v83h84m0-250h-84v84h84m-250 250h-84v83h84m0-250h-84v83h84m0-250h-84v84h84m333 250v250l-125 125-125-125v-84h-250v-583h750v417h-250z" horiz-adv-x="1000" />

<glyph glyph-name="clock" unicode="&#xe81f;" d="M500 17c184 0 333 149 333 333 0 184-149 333-333 333-184 0-333-149-333-333 0-184 149-333 333-333m0 750c230 0 417-187 417-417 0-230-187-417-417-417-230 0-417 188-417 417 0 230 187 417 417 417m21-209v-218l187-112-31-51-219 131v250h63z" horiz-adv-x="1000" />

<glyph glyph-name="close" unicode="&#xe820;" d="M792 583l-59 59-233-233-233 233-59-59 233-233-233-233 59-59 233 233 233-233 59 59-233 233 233 233z" horiz-adv-x="1000" />

<glyph glyph-name="code" unicode="&#xe821;" d="M594 663l-94-94 219-219-219-219 94-93 281 312-281 313z m-313 0l-281-313 281-312 94 93-219 219 219 219-94 94z" horiz-adv-x="875" />

<glyph glyph-name="code-tags" unicode="&#xe822;" d="M608 158l192 192-192 192 59 58 250-250-250-250-59 58m-216 0l-192 192 192 192-59 58-250-250 250-250 59 58z" horiz-adv-x="1000" />

<glyph glyph-name="contact-mail" unicode="&#xe823;" d="M875 517v41l-125-83-125 83v-41l125-84m167 292h-834c-45 0-83-37-83-83v-584c0-45 38-83 83-83h834c46 0 83 38 83 83v584c0 46-37 83-83 83m-584-125c70 0 125-56 125-125 0-69-55-125-125-125-69 0-125 56-125 125 0 69 56 125 125 125m250-500h-500v42c0 83 167 129 250 129 84 0 250-46 250-129m334 208h-334v250h334" horiz-adv-x="1000" />

<glyph glyph-name="contact-phone" unicode="&#xe824;" d="M744 266c-10 25-15 55-15 84s5 59 15 84h69l62 82-82 84c-55-41-96-98-115-166-8-27-12-55-12-84s4-57 12-84c19-66 60-125 115-166l82 84-62 82h-69z m-160-166v41c0 84-166 129-250 129s-250-45-250-129v-41h500z m-250 500c-68 0-125-57-125-125s57-125 125-125 125 57 125 125-57 125-125 125z m582 125c45 0 84-39 84-84v-582c0-45-39-84-84-84h-832c-45 0-84 39-84 84v582c0 45 39 84 84 84h832z" horiz-adv-x="1000" />

<glyph glyph-name="directory" unicode="&#xe825;" d="M67-121c-27 15-48 50-49 81-1 51 46 100 95 100 12 0 24 22 45 82 25 75 43 98 58 74 3-4-7-45-22-90l-28-82 23-27c67-78-30-189-122-138z m273 0c-52 28-64 94-26 139l23 28-28 81c-16 44-26 84-23 89 16 26 34 3 59-74 20-62 31-82 44-82 48 0 95-49 95-97 0-73-80-120-144-84z m233 0c-28 15-49 50-49 81-1 51 46 100 95 100 13 0 24 20 44 82 25 77 43 100 59 74 3-5-7-45-23-89l-28-81 23-28c67-79-29-190-121-139z m272 0c-51 28-64 95-26 138l23 27-28 82c-15 45-25 86-23 90 15 24 33 1 59-74 20-60 32-82 45-82 47 0 95-49 95-97 0-73-81-120-145-84z m-641 389c-28 15-49 50-50 81-1 57 57 108 110 98 19-4 31 8 85 91 34 52 65 95 67 95 3 0 11-4 18-8 11-7-1-30-50-104-62-92-63-96-50-122 46-88-45-179-130-131z m505 0c-46 25-61 81-36 130 13 26 11 31-49 123-48 73-60 98-50 104 7 4 15 8 17 8 3 0 33-43 68-95 54-83 65-95 85-91 51 9 110-41 110-95 0-73-81-120-145-84z m-253 389c-84 46-49 180 48 180 49 0 97-47 97-96 0-73-81-120-145-84z" horiz-adv-x="1000" />

<glyph glyph-name="dots-horizontal" unicode="&#xe826;" d="M667 350c0 46 37 83 83 83 46 0 83-37 83-83 0-46-37-83-83-83-46 0-83 37-83 83m-250 0c0 46 37 83 83 83 46 0 83-37 83-83 0-46-37-83-83-83-46 0-83 37-83 83m-250 0c0 46 37 83 83 83 46 0 83-37 83-83 0-46-37-83-83-83-46 0-83 37-83 83z" horiz-adv-x="1000" />

<glyph glyph-name="dots-vertical" unicode="&#xe827;" d="M500 183c46 0 83-37 83-83 0-46-37-83-83-83-46 0-83 37-83 83 0 46 37 83 83 83m0 250c46 0 83-37 83-83 0-46-37-83-83-83-46 0-83 37-83 83 0 46 37 83 83 83m0 250c46 0 83-37 83-83 0-46-37-83-83-83-46 0-83 37-83 83 0 46 37 83 83 83z" horiz-adv-x="1000" />

<glyph glyph-name="download" unicode="&#xe828;" d="M208 17h584v83h-584m584 375h-167v250h-250v-250h-167l292-292 292 292z" horiz-adv-x="1000" />

<glyph glyph-name="earth" unicode="&#xe829;" d="M746 125c-11 34-42 58-79 58h-42v125c0 23-19 42-42 42h-250v83h84c23 0 41 19 41 42v83h84c46 0 83 38 83 84v17c122-49 208-169 208-309 0-87-33-165-87-225m-288-105c-164 20-291 160-291 330 0 26 3 51 8 75l200-200v-42c0-45 38-83 83-83m42 667c-230 0-417-187-417-417 0-230 187-417 417-417 230 0 417 187 417 417 0 230-187 417-417 417z" horiz-adv-x="1000" />

<glyph glyph-name="email" unicode="&#xe82a;" d="M833 517l-333-209-333 209v83l333-208 333 208m0 83h-666c-47 0-84-37-84-83v-500c0-46 38-83 84-83h666c46 0 84 37 84 83v500c0 46-38 83-84 83z" horiz-adv-x="1000" />

<glyph glyph-name="email-outline" unicode="&#xe82b;" d="M833 683h-666c-46 0-84-37-84-83v-500c0-46 38-83 84-83h666c46 0 84 37 84 83v500c0 46-38 83-84 83m0-583h-666v417l333-209 333 209v-417m0 500l-333-208-333 208v0h666v0z" horiz-adv-x="1000" />

<glyph glyph-name="eye" unicode="&#xe82c;" d="M500 475c-69 0-125-56-125-125 0-69 56-125 125-125 69 0 125 56 125 125 0 69-56 125-125 125m0-333c-115 0-208 93-208 208 0 115 93 208 208 208 115 0 208-93 208-208 0-115-93-208-208-208m0 521c-208 0-386-130-458-313 72-183 250-312 458-312 208 0 386 129 458 312-72 183-250 313-458 313z" horiz-adv-x="1000" />

<glyph glyph-name="facebook" unicode="&#xe82d;" d="M708 767v0h0v-167h-83c-29 0-42-34-42-62v-105h0l125 0v-166h-125v-334h-166v334h-125v166h125v167c0 92 74 167 166 167h125z" horiz-adv-x="1000" />

<glyph glyph-name="facebook-box" unicode="&#xe82e;" d="M792 683v-125h-84c-23 0-41-18-41-41v-84h125v-125h-125v-291h-125v291h-84v125h84v105c0 80 65 145 146 145m145 84h-666c-46 0-84-38-84-84v-666c0-46 38-84 84-84h666c46 0 84 38 84 84v666c0 47-38 84-84 84z" horiz-adv-x="1000" />

<glyph glyph-name="fax" unicode="&#xe82f;" d="M458 600h209v-83h-209v83m-125-125v250h459v-250c69 0 125-56 125-125v-250h-125v-125h-459v125h-41v375h41m84 167v-167h291v167h-291m0-417v-167h291v167h-291m375 167c-23 0-42-19-42-42 0-23 19-42 42-42 23 0 41 19 41 42 0 23-18 42-41 42m-625 83h41c23 0 42-19 42-42v-291c0-23-19-42-42-42h-41c-46 0-84 38-84 83v209c0 46 38 83 84 83z" horiz-adv-x="1000" />

<glyph glyph-name="feather" unicode="&#xe830;" d="M917 767c0 0-319 15-569-329-193-263-265-505-265-505l81 42c60 104 91 147 150 208 106-30 216-27 311 84-83 23-150 18-248 8 110 75 186 92 290 75l41 83c-75 15-125 16-199-1 82 58 139 90 241 85l50 80c-65 5-104-2-178-21 67 61 128 89 217 94 0 0 44 79 78 97z" horiz-adv-x="1000" />

<glyph glyph-name="festival" unicode="&#xe831;" d="M47-88c-30 30-30 31-30 276v247l31 29c127 119 659 138 868 31 26-14 53-35 60-49 7-14 12-122 12-264 0-239 0-241-29-270-29-29-38-31-170-31h-141v100c0 93-2 101-35 135-32 31-44 35-110 35-67 0-79-4-111-35-33-34-35-42-35-135v-100h-140c-133 0-142 2-170 31z m213 147c0 44-5 80-11 80-6 0-28-3-49-8-37-7-37-8-37-79v-72h48 49v79z m583-6c0 41-5 74-11 74-6 0-28 3-49 8l-37 7v-81-81h48 49v73z m-583 247c0 72-1 75-28 68-15-4-37-8-48-8-18 0-22-12-22-68v-67h49 49v75z m194 11c0 92-4 96-70 78-25-7-27-15-27-86v-78h48 49v86z m194-8c0 71-2 79-27 86-66 18-70 14-70-78v-86h49 48v78z m195-11c0 56-4 68-22 68-11 0-33 4-48 8-26 7-27 4-27-68v-75h48 49v67z m-826 349c0 60 0 61 42 69 26 5 63 1 98-11 30-10 63-16 73-12 10 4 18 1 18-5 0-21-53-49-110-58-30-5-69-17-88-27l-33-17v61z m838-34c-23 7-57 10-76 8-33-5-33-4-33 54 0 54 2 59 28 59 15 0 55-20 88-44 33-24 72-49 88-55 15-6 24-17 20-24-9-15-59-14-115 2z m-496 129l4 72 49 3c37 3 71-8 144-46l96-49-40-17c-26-11-67-15-121-11-51 4-92 1-109-8-26-15-26-14-23 56z" horiz-adv-x="1000" />

<glyph glyph-name="fiesta" unicode="&#xe832;" d="M12-96v40h225 224v82c0 75 1 81 21 81 49 0 60-16 60-92v-71h224 224v-40-41h-489-489v41z m237 103l-32 20 24 38c32 49 69 205 49 205-16 0-56-33-73-61l-17-29-33 21c-32 20-32 20-15 50 23 39 77 64 119 55 17-3 43-6 57-5 14 0 65 2 112 3 48 1 94 7 104 12 9 6 31 30 49 54 33 46 64 63 114 63 23 0 29-4 25-15-3-8-1-18 5-21 14-9 49-86 49-109 1-20-30-24-47-7-6 6-22 10-35 8-55-8-48-122 12-216l28-45-28-20-27-20-46 57c-111 139-231 136-328-9l-34-50-32 21z m218 341c-3 4-6 44-6 90 0 71 2 84 20 95 16 10 24 10 41 0 17-11 20-24 20-92 0-76-1-80-26-89-31-12-39-13-49-4z m-433 235c-12 14-21 41-21 60v33l247 83 247 82 239-80 239-80 3-35c4-41-29-90-59-90-10 0-28 11-39 26l-20 25-26-25c-36-36-82-35-117 2l-26 29-23-26c-18-22-31-26-75-26-45 0-56 4-77 28l-25 29-24-29c-21-24-32-28-78-28-43 0-56 4-75 26l-22 26-27-29c-34-37-80-38-116-2l-26 25-20-25c-26-34-53-33-79 1z" horiz-adv-x="1000" />

<glyph glyph-name="file-document" unicode="&#xe833;" d="M542 475h229l-229 229v-229m-292 292h333l250-250v-500c0-46-37-84-83-84h-500c-46 0-83 38-83 84v666c0 47 37 84 83 84m375-667v83h-375v-83h375m125 167v83h-500v-83h500z" horiz-adv-x="1000" />

<glyph glyph-name="file-find" unicode="&#xe834;" d="M375 308c0-69 56-125 125-125 69 0 125 56 125 125 0 70-56 125-125 125-69 0-125-55-125-125m458-274v483l-250 250h-333c-46 0-83-38-83-84v-666c0-46 37-84 83-84h500c19 0 35 7 50 17l-185 185c-33-22-73-35-115-35-115 0-208 93-208 208 0 115 93 209 208 209 115 0 208-94 208-209 0-41-13-81-34-114l159-160z" horiz-adv-x="1000" />

<glyph glyph-name="file-pdf" unicode="&#xe835;" d="M583 475h230l-230 229v-229m-291 292h333l250-250v-500c0-46-37-84-83-84h-500c-47 0-84 38-84 84v666c0 46 38 84 84 84m205-435c17-38 39-69 64-90l17-13c-36-7-86-19-139-39v0l-5-2 21 44c19 36 33 69 42 100m270-159c8 7 11 17 12 27 1 9-1 17-5 23-12 20-44 29-95 29l-54-3-36 24c-26 22-50 60-67 107l2 6c14 55 26 122-1 150-7 7-16 10-25 10h-10c-16 0-30-16-33-32-16-56-7-86 9-136v-1c-11-37-24-79-45-122l-40-75-37-20c-50-32-74-67-79-89-1-8 0-15 2-22l2-2 20-13 18-5c34 0 72 40 124 128l7 3c43 14 97 23 168 31 43-21 94-31 125-31 19 0 31 5 38 13m-17 30l4-5c-1-4-2-5-4-5h-2l-8-1c-19 0-48 8-79 21 4 4 6 4 10 4 58 0 75-10 79-14m-382-61c-27-50-52-77-70-84 2 16 20 44 50 71l20 13m126 288c-10 37-10 68-3 85l3 5 6-2c7-10 8-23 4-46l-1-7-7-34-2-1z" horiz-adv-x="1000" />

<glyph glyph-name="file-word" unicode="&#xe836;" d="M250 767h333l250-250v-500c0-46-37-84-83-84h-500c-46 0-83 38-83 84v666c0 46 37 84 83 84m292-63v-229h229l-229 229m-250-396l62-291h84l62 125 63-125h83l62 291h42v84h-167v-84h42l-37-175-46 92v0h-84v0l-45-92-38 175h42v84h-167v-84h42z" horiz-adv-x="1000" />

<glyph glyph-name="film" unicode="&#xe837;" d="M0 725v-750h1000v750h-1000z m188-687h-125v125h125v-125z m0 250h-125v125h125v-125z m0 250h-125v125h125v-125z m562-500h-500v625h500v-625z m188 0h-125v125h125v-125z m0 250h-125v125h125v-125z m0 250h-125v125h125v-125z m-563 0v-375l250 187z" horiz-adv-x="1000" />

<glyph glyph-name="fire" unicode="&#xe838;" d="M488 58c-74 0-134 59-134 131 0 68 43 115 117 130 74 15 150 51 192 108 17-54 25-111 25-169 0-110-90-200-200-200m75 764c0 0 30-110 30-200 0-86-56-155-142-155-86 0-151 69-151 155l1 16c-84-100-134-230-134-371 0-184 149-334 333-334 184 0 333 150 333 334 0 225-108 425-270 555z" horiz-adv-x="1000" />

<glyph glyph-name="fire-building" unicode="&#xe839;" d="M44-107l-30 29v383 383l122 74 121 73 122-73 122-74v-109c0-117-4-129-83-257-36-59-48-70-77-70-33 0-35-3-35-49 0-40 4-48 24-48 18 0 25-8 25-30 0-16 3-38 7-48 6-15 0-20-24-20-29 0-32-4-32-48v-49h53c44 0 56-6 80-38 23-31 25-40 11-48-9-6-97-11-196-11-175 0-181 1-210 30z m165 116c0 48 0 48-49 48s-49 0-49-48c0-49 0-49 49-49s49 0 49 49z m0 194c0 49 0 49-49 49s-49 0-49-49c0-48 0-48 49-48s49 0 49 48z m0 195c0 49 0 49-49 49s-49 0-49-49c0-49 0-49 49-49s49 0 49 49z m194 0c0 49 0 49-48 49s-49 0-49-49c0-49 0-49 49-49s48 0 48 49z m-194 194c0 49 0 49-49 49s-49 0-49-49 0-48 49-48 49 0 49 48z m194 0c0 49 0 49-48 49s-49 0-49-49 0-48 49-48 48 0 48 48z m165-709c-92 48-150 136-161 240-5 53-1 71 32 129 20 37 55 102 76 145l39 79 27-60 27-61 25 57c14 31 35 96 46 145l20 88 34-41c20-23 52-76 73-117 34-67 37-83 33-168-4-90-3-92 17-67 12 15 28 48 35 74 17 56 29 51 62-24 35-76 37-221 5-281-31-59-78-108-131-135l-46-23 8 59c8 69-29 207-69 257l-25 30-24-30c-43-54-77-178-69-251 3-36 5-65 4-65-1 0-18 9-38 20z" horiz-adv-x="1000" />

<glyph glyph-name="flag" unicode="&#xe83a;" d="M600 600l-17 83h-375v-708h84v292h233l17-84h291v417h-233z" horiz-adv-x="1000" />

<glyph glyph-name="flame" unicode="&#xe83b;" d="M423 806c49-131 23-202-31-259-60-62-153-109-218-201-87-122-102-391 212-461-132 69-160 271-18 397-37-122 31-200 116-172 83 28 138-31 136-100-1-47-19-87-67-109 204 36 286 205 286 334 0 170-151 193-75 336-91-8-122-68-114-165 6-65-61-109-111-79-40 24-39 71-4 106 75 74 105 245-112 373z" horiz-adv-x="1000" />

<glyph glyph-name="flower" unicode="&#xe83c;" d="M125 308c0-207 168-375 375-375 0 209-168 375-375 375m375 313c58 0 104-47 104-104 0-58-46-104-104-104-57 0-104 46-104 104 0 57 47 104 104 104m-267-198c0-58 47-104 105-104 22 0 42 7 58 18 0-2 0-5 0-8 0-57 47-104 104-104 58 0 104 47 104 104 0 3 0 6 0 8 16-11 36-18 59-18 57 0 104 46 104 104 0 42-25 77-60 94 35 16 60 52 60 93 0 58-47 105-104 105-23 0-43-7-59-19 0 3 0 6 0 8 0 58-46 104-104 104-57 0-104-46-104-104 0-2 0-5 0-8-16 12-36 19-58 19-58 0-105-47-105-105 0-41 25-77 60-93-35-17-60-52-60-94m267-490c207 0 375 168 375 375-208 0-375-166-375-375z" horiz-adv-x="1000" />

<glyph glyph-name="flow-tree" unicode="&#xe83d;" d="M900 109v116c0 97-78 175-175 175h-100c-41 0-75 34-75 75v116c41 19 70 61 70 109 0 66-54 120-120 120s-120-54-120-120c0-48 29-90 70-109v-116c0-41-34-75-75-75h-100c-97 0-175-78-175-175v-116c-41-19-70-61-70-109 0-66 54-120 120-120s120 54 120 120c0 48-29 90-70 109v116c0 41 34 75 75 75h100c27 0 52 7 75 18v-209c-41-19-70-61-70-109 0-66 54-120 120-120s120 54 120 120c0 48-29 90-70 109v209c23-11 48-18 75-18h100c41 0 75-34 75-75v-116c-41-19-70-61-70-109 0-66 54-120 120-120s120 54 120 120c0 48-29 90-70 109z m-400 660c38 0 69-31 69-69 0-38-31-69-69-69s-69 31-69 69c0 38 31 69 69 69z m-350-838c-38 0-69 31-69 69 0 38 31 69 69 69 38 0 69-31 69-69 0-38-31-69-69-69z m350 0c-38 0-69 31-69 69 0 38 31 69 69 69 38 0 69-31 69-69 0-38-31-69-69-69z m350 0c-38 0-69 31-69 69 0 38 31 69 69 69 38 0 69-31 69-69 0-38-31-69-69-69z" horiz-adv-x="1000" />

<glyph glyph-name="food" unicode="&#xe83e;" d="M646-25l-63 542h93l-47 189 73 19 52-208h163l-63-542h-208m-438 417h209c69 0 125-56 125-125h-459c0 69 56 125 125 125m334-292c0-69-56-125-125-125h-209c-69 0-125 56-125 125h459m-417 125h208l63-62 62 62h42c23 0 42-19 42-42 0-23-19-41-42-41h-375c-23 0-42 18-42 41 0 23 19 42 42 42z" horiz-adv-x="1000" />

<glyph glyph-name="food-variant" unicode="&#xe83f;" d="M917 100c0-92-75-167-167-167h-125c-92 0-167 75-167 167v83h283l115 199 65-37-93-162h89v-83m-542-167h-292c0 125 0 250 14 382 11 106 31 216 53 327h-25v83h42l125 0h41v-83h-25c22-111 42-221 53-327 14-132 14-257 14-382z" horiz-adv-x="1000" />

<glyph glyph-name="forest" unicode="&#xe840;" d="M211 0v97l-51 8c-93 15-164 121-141 211 4 17 21 46 37 65 24 29 27 40 17 69-19 55-2 115 46 157 23 21 42 49 42 63 0 63 61 124 123 124 63 0 123-61 123-125 0-14 14-37 31-51 17-13 40-42 50-62 20-38 20-39-55-148l-75-110h69 68l-68-98-69-99v-99-100h-74-73v98z m442 1v98l-97 4-97 4 83 117 83 118-60 4-59 3 68 98 67 98-42 3-42 4 79 112c43 61 84 111 90 111 7 0 48-50 91-111l78-112-42-4-42-3 68-98 68-98-60-3-59-4 83-118 83-117-97-4-97-4v-98-99h-74-73v99z" horiz-adv-x="1000" />

<glyph glyph-name="gallery" unicode="&#xe841;" d="M867 236l-41-153-2 0-45-168-290 78-3-1-306 82-1 2-81 22 15 57 1 0 151 563-1 0 16 60 534-144 1 2 147-39-96-359 1-2z m20 317l-563 151-111-415 563-151 111 415z m-505-121l38-64 97 91 49-86 131 115 33-268-432 116 84 96z m28 62c-24 7-39 32-32 57s32 39 56 32c25-6 39-31 33-56s-32-39-57-33z m266 216l-13-3-118 31 175 47 27-101-69 19-2 7z m-563-151l39-145-32-118-82 307 177 47-18-68-84-23z m108-638l-32 118 237-63-205-55z" horiz-adv-x="1000" />

<glyph glyph-name="glasses" unicode="&#xe842;" d="M125 433c-10 0-19-3-25-10-5-6-8-15-7-25l21-125c4-27 28-48 53-48h125c26 0 56 23 62 49l44 133c2 6 1 13-2 18-5 5-12 8-21 8h-250m167-291h-125c-68 0-127 52-135 119l-21 124c-5 36 5 69 27 93 22 25 53 39 87 39h250c35 0 66-15 86-40 4-7 9-13 12-21 18 4 36 4 54 0 3 8 7 14 12 21 20 25 51 40 86 40h250c34 0 65-14 87-39 21-24 31-57 27-91l-21-128c-8-65-68-117-135-117h-125c-65 0-128 49-144 112l-37 113c-16 12-38 12-54 0l-38-116c-15-60-78-109-143-109m333 291c-9 0-16-3-21-8-3-5-4-12-2-21l42-127c8-29 38-52 64-52h125c25 0 50 21 52 46l22 128c1 9-2 18-7 24-6 7-15 10-25 10h-250z" horiz-adv-x="1000" />

<glyph glyph-name="google-plus" unicode="&#xe843;" d="M958 392h-83v83h-83v-83h-84v-84h84v-83h83v83h83m-625 84v-100h167c-8-42-50-125-167-125-100 0-179 83-179 183 0 100 79 183 179 183 59 0 96-25 117-45l79 75c-50 50-116 79-196 79-162 0-291-129-291-292 0-162 129-292 291-292 167 0 280 117 280 284 0 21 0 33-5 50h-275z" horiz-adv-x="1000" />

<glyph glyph-name="gov" unicode="&#xe844;" d="M27-74c1 28 6 46 19 67 8 13 27 51 32 65 1 2 4 10 6 16 5 14 6 17 9 23 7 15 13 23 25 32 8 6 21 15 33 21 3 1 22 14 54 35 27 18 51 34 53 35 15 9 35 19 51 27 21 9 50 22 74 32 5 2 8 3 9 4 1 1 12 20 18 30 4 8 12 23 18 34 4 8 6 9 11 10 2 0 2 0 2 1 0 0-1 6-3 13-3 16-7 33-8 39-2 4-3 8-5 12l-1 3-2-1c-5-4-10-5-15-3-4 2-11 11-15 18-3 6-5 11-7 23-3 10-4 15-6 24-1 3-3 9-3 12-1 3-3 11-4 17-3 10-3 11-3 15 0 5 0 8 2 12 2 3 5 7 9 12 5 5 8 6 15 8l4 0 0 2c-1 8-2 29-1 42 1 4 1 10 1 12 1 16 5 32 12 44 3 7 12 19 18 26 11 14 29 28 52 41 31 19 64 34 85 40 13 3 30 5 41 5 18-1 39-7 46-13 5-3 10-13 13-20 0-1 0-2 0-2 1-1 3-1 6-1 11-1 22-4 30-7 4-2 10-6 14-9 2-1 5-4 8-7 29-32 32-35 34-39 12-19 20-41 22-58 1-19-2-50-9-75l-2-5 1-3c5-11 7-24 6-33-1-8-4-22-7-33-6-19-7-24-7-35 0-8 0-10-2-13 0-1-1-2-1-4-1-5-3-9-5-12-2-2-2-2-3-7-2-13-6-24-12-35-4-9-12-21-19-31-8-11-18-31-23-43l-1-3 3-4c4-5 6-10 7-17l1-3 11-4c48-18 91-37 118-51 23-13 49-30 59-39 8-7 16-18 22-29 12-21 25-58 33-93 7-29 13-64 16-100 0-7 2-22 2-24 0 0-165 0-471 0h-470l0 4z" horiz-adv-x="1000" />

<glyph glyph-name="heart" unicode="&#xe845;" d="M375 6c390 307 375 415 375 500s-70 188-187 188-188-125-188-125-70 125-187 125-188-103-188-188-15-193 375-500z" horiz-adv-x="750" />

<glyph glyph-name="heart-m" unicode="&#xe846;" d="M500-40l-60 55c-215 195-357 324-357 481 0 129 101 229 230 229 72 0 142-34 187-87 45 53 115 87 188 87 128 0 229-100 229-229 0-157-142-286-357-481l-60-55z" horiz-adv-x="1000" />

<glyph glyph-name="help" unicode="&#xe847;" d="M411-126c-73 14-163 62-228 123-147 135-193 358-110 537l24 53 13-59c19-79 37-100 79-91 18 4 41 15 52 26 15 15 16 24 8 56-6 21-15 42-20 48-15 16-10 54 16 105 14 27 25 58 25 69 0 25 82 60 173 74 309 48 588-232 540-543-16-103-61-190-137-266-118-118-272-165-435-133z m2 205c51 47 94 64 192 78 58 9 80 16 80 26 0 38-179 10-258-40-49-31-83-73-72-90 10-15 14-13 58 26z m-13 298c18 23 23 88 8 116-31 59-93 13-84-63 7-61 46-88 76-53z m280 0c18 23 23 88 8 116-31 59-93 13-84-63 7-61 46-88 76-53z m57 209c-18 27-75 57-109 57-39 0-79-21-75-39 2-10 11-15 23-13 82 14 81 14 115-16 25-23 37-28 47-20 10 9 10 15-1 31z m-343 34c17-3 40-7 51-9 30-5 30 26 0 40-35 16-71 15-111-4-44-21-67-53-52-71 8-10 18-7 46 18 28 24 41 30 66 26z m-230-132c-9 23 4 47 24 43 21-4 29-38 11-49-20-13-29-11-35 6z m-24 115c0 24 11 61 27 91l26 50-20 27c-27 37-66 40-99 7-19-19-24-33-20-50 6-22-7-35-35-35-14 0-10 58 6 89 31 60 138 78 178 30 31-38 32-68 4-126-15-29-27-67-27-82 0-25-14-41-36-41-2 0-4 18-4 40z" horiz-adv-x="1000" />

<glyph glyph-name="help-circle" unicode="&#xe848;" d="M628 381l-38-38c-30-30-48-55-48-118h-84v21c0 46 19 88 49 118l52 52c15 15 24 36 24 59 0 46-37 83-83 83-46 0-83-37-83-83h-84c0 92 75 167 167 167 92 0 167-75 167-167 0-37-15-70-39-94m-86-323h-84v84h84m-42 625c-230 0-417-187-417-417 0-230 187-417 417-417 230 0 417 187 417 417 0 230-188 417-417 417z" horiz-adv-x="1000" />

<glyph glyph-name="home" unicode="&#xe849;" d="M417 17v250h166v-250h209v333h125l-417 375-417-375h125v-333h209z" horiz-adv-x="1000" />

<glyph glyph-name="hospital" unicode="&#xe84a;" d="M750 267h-167v-167h-166v167h-167v166h167v167h166v-167h167m42 292h-584c-46 0-83-37-83-83v-584c0-45 38-83 83-83h584c46 0 83 38 83 83v584c0 46-37 83-83 83z" horiz-adv-x="1000" />

<glyph glyph-name="hospital-building" unicode="&#xe84b;" d="M83-67v625c0 23 19 42 42 42h167v167h416v-167h167c23 0 42-19 42-42v-625h-334v209h-166v-209h-334m292 750v-250h83v84h84v-84h83v250h-83v-83h-84v83h-83m-208-666h166v125h-166v-125m0 208h166v125h-166v-125m500-208h166v125h-166v-125m0 208h166v125h-166v-125m-250 0h166v125h-166v-125z" horiz-adv-x="1000" />

<glyph glyph-name="hotel" unicode="&#xe84c;" d="M792 558h-334v-291h-333v375h-83v-625h83v125h750v-125h83v375c0 92-74 166-166 166m-500-250c69 0 125 56 125 125 0 70-56 125-125 125-69 0-125-55-125-125 0-69 56-125 125-125z" horiz-adv-x="1000" />

<glyph glyph-name="information" unicode="&#xe84d;" d="M542 475h-84v83h84m0-416h-84v250h84m-42 375c-230 0-417-187-417-417 0-230 187-417 417-417 230 0 417 187 417 417 0 230-187 417-417 417z" horiz-adv-x="1000" />

<glyph glyph-name="instruction" unicode="&#xe84e;" d="M443-90c-23 22-41 24-213 24-145 0-192 4-203 17-10 12-13 131-10 413l3 397 67 24c82 28 300 34 369 9 37-13 58-12 129 5 100 24 237 17 337-16l66-22 3-397c2-282-1-401-11-413-10-13-58-17-203-17-171 0-191-2-215-24-14-14-42-25-60-25s-46 11-59 25z m12 499l0 284-34 10c-43 12-232 12-275 0l-34-10 0-284 0-285h171 172l0 285z m441 0l0 284-34 10c-43 12-232 12-275 0l-34-10 0-284 0-285h171 172l0 285z m-196-107c0 65-3 73-25 73-20 0-24 8-24 49v49h73 74v-122-123h-49-49v74z m13 238c-33 39 15 99 57 73 28-17 34-50 15-73-19-23-53-23-72 0z" horiz-adv-x="1000" />

<glyph glyph-name="lead-pencil" unicode="&#xe84f;" d="M702 736c-17 0-32-6-45-18l-88-88 221-222 88 88c25 25 25 65 0 89l-132 133c-13 12-28 18-44 18m-163-136l-337-338 106-12 8-95 95-7 12-107 337 338m-583-156l-73-278 279 74-10 90-96 7-7 97" horiz-adv-x="1000" />

<glyph glyph-name="map" unicode="&#xe850;" d="M470-27l-38 40-8 5-9 5-2 4c-3 4-10 13-10 13 0 1-2 2-5 3-2 1-3 1-11 8l-9 7-3-1c-1 0-2 0-2 0 0 0-1-1-1-2-1-2-1-2-3-2 0 0-1-1-3-3-2-2-2-2-4-3l-2 0-2 1c-1 2-2 2-3 2l-1 0-1 2-1 3 3 7 2 7-5 7-5 7 1 12c0 6 0 11 0 11 0 1-10 11-25 25l-25 24-13-1-13-1-6 5c-4 3-6 5-5 5 0 0 2 0 4 1 2 0 4 1 5 1 0 0 0 1-1 3-1 2-2 4-2 4 0 1 0 1 3 0 2-1 4-2 4-2 0 0 0 4 0 9l-1 9 8 12 7 12 3 14 4 13 20 41 20 42 17 9 18 9 0 9c1 4 1 10 1 13 2 12 5 23 10 36l3 5 3 39 3 38-9 26c-5 15-9 26-9 27 0 0-23 13-51 29l-51 30-14 1c-8 1-14 2-14 2 0 0-6 7-13 16-11 14-12 15-13 14 0 0-2 0-3-1l-2 0-54 20c-29 11-53 20-53 20-1 0 0 7 0 16 0 14 0 16 0 19l-1 5-2 2-1 2-2 0c-1 0-5-1-9-1l-7-1-6-5-6-6 0-7c0-4-1-7-1-7 0 0-3-2-8-4l-7-4-5-11c-4-10-5-12-6-12-1-1-31-13-31-12 0 0 1 8 2 18 2 17 2 17 2 19-1 2-1 2 0 7 1 3 4 17 6 30 4 24 4 25 4 26l-1 2 6 5 5 5 3-1 2-2 7 4c3 1 6 3 7 3 2 1 5 5 7 8 1 2 1 3 2 3 0 0 3-2 7-4 6-4 6-4 9-4 4-1 9 0 12 1 4 1 8 3 12 5 2 1 2 1 3 4 1 1 1 2 3 3 1 1 2 2 3 2 0 0 1 0 2 0 2 1 3 1 10 1 13 0 26-1 28-3 0-1 6-3 14-6s14-6 14-6c0 0 36-29 42-35 9-8 23-18 32-24 10-7 19-12 32-17 2-2 4-3 6-4 1-1 3-3 4-3l2-2 3 1 2 1 7-3c15-7 25-12 36-18 7-4 18-11 18-11 0 0-1 0-2-1-1 0-2-1-3-1l-1 0 2-3 1-2 2 1c3 1 6 1 9 0 1 0 5-3 9-6 16-11 35-23 48-31 10-5 27-13 36-17 1 0 7-3 12-5 8-4 11-5 16-7 25-8 44-15 78-28 37-16 58-23 74-29 4-1 6-2 8-3 2-1 4-2 12-4 7-2 9-2 10-2 2 0 2 0 3-1 0 0 1-1 1-1 0 0 1-1 2-2l2-2 1 1c2 3 1 3 4 2 2 0 7 0 11 0 8-1 8 0 11 0 1 1 2 1 3 2 1 0 1 0 3 0 1-1 3-1 4-1 3 0 3 0 5 0 1 1 2 2 4 3l2 2 4 1c4 0 4 0 5 1 2 2 2 2 6 2l5 1 9 5c5 2 9 4 10 5 0 0 1 2 2 4l2 3 7 5c3 3 7 6 7 6 0 0 1 2 2 4l1 3 2 1c1 1 3 2 3 3 0 0 0 1 1 2 0 2 0 2 5 5 3 3 6 5 8 6 1 2 4 5 6 7l5 4 0 3c1 2 1 4 1 5 1 1 3 3 3 3 0 0 1-1 2-2 2-2 5-5 6-5 1 0 6 4 8 5 1 1 3 3 3 4l2 2-2 5-2 6 2 2 2 3 0 1c0 3-2 6-4 8-1 1-2 2-2 3 0 1 1 3 3 5 0 0 1 1 1 3 0 2 1 4 4 9 1 4 3 7 3 8 1 5 3 8 7 14l2 3 0 3c-1 2-1 5-1 8 0 5 0 5 1 7 1 2 2 3 5 5 2 1 3 1 3 2 0 0 0 0-1 1l-2 1 1 1c2 2 4 3 6 3 1-1 4-2 5-4l2-1 3 1c2 0 4 0 6 0l2 0 2-2 3-3 2 2c2 1 3 1 4 1 2 0 2 0 6 3l3 3 6-3 6-4 4-7 3-6-2-6c-2-5-3-6-3-9l0-3 3-4 3-4 0-4 0-4 2-2 3-2 3-6c1-3 3-6 3-6 0-1 2-2 5-3 4-3 4-3 5-4 0-1 0-2 0-2 0-1 0-1 2-2 6-1 8-3 12-10l3-5 5-3 5-3-1-2-1-1 1-2c0 0 1-2 2-2 1 0 2-1 2-1 1 0 2-5 3-10l3-10-1-3-1-4 1-3c0-4 0-4 2-6 1-1 2-2 2-2 0-1-2-7-2-7 0 0 1 0 2-1l1 0 0-4-1-4-2-4-2-4 2-5 2-5-3-7-3-7-1 0c-2-1-3-2-3-5 0-4 0-4 0-6-1-1-2-1-5-3l-4-3-1-3c-2-3-2-3-4-4-2-1-2 0-1-5l1-3-1-1c0 0-1-1-1-2 0-1-1-1-3-3-2-1-2-1-2-3 0-1-1-2-1-3 0 0-1-1-2-2-1-1-3-2-4-3-1-1-4-3-5-4-3-1-4-2-5-4l-2-3 1-1c0-1 0-3 0-4 0-1-1-2-2-3-1-1-2-1-4-1-1-1-3-1-3-1s0-1-1-1c-1-2-1-2-3-2-1 0-2 0-2 0-1 0-2-1-3-1-1-1-2-1-4-2-3 0-4-1-5-2-1-1-3-1-5-2-2-1-3-1-3-2 0 0-1-1-1-2 0-2 0-2-2-3-1 0-2-1-3-1 0 0 0-1-1-3l0-4-3-3-3-3 0-1 1-2-2-2-3-3-2 2-2 1-2-2-3-1-3-10c-2-7-4-10-4-11-2-2-2-2-1-4 0-3 0-3-1-5l-1-2 1-3c1-2 1-2 4-4 1-1 3-2 5-2 1 0 3-1 3-1 0 0 0-3 0-3 0 0 0 0-1 1 0 0-1 0-2-1-1 0-2-1-2-2 0 0 0-3-1-7l-1-6 1-2c0-1 1-3 1-3 0 0 2-1 3-2l3-1 1-4 2-3-1-3-1-2 1-3 1-2-1-4c0-4 0-3-4-6l-3-1 1-2c1-1 1-1 1-3 0-1 0-2 0-4l0-2-1-2-2-1 1-7 0-6 2-3 1-3-1-3-2-3 2-4c1-4 1-4 1-5 0-1-1-1-1-1 1 0 2-1 4-3 3-2 3-2 2-5 0 0-1-1-1-1-1-2-1-2-1-3l1 0-3-3c-2-2-3-3-5-3l-2-1 0-2c0 0 0-1 0-2 0 0-1-1-2-3-2-2-4-6-5-9 0-1 0-4 0-6-1-4-1-4 1-7 0-2 1-5 2-6l0-2-3-3c-6-4-9-7-9-9 0 0-1-1-1-2l-1-1 1-2c1-1 2-1 3-2l2-1 0-2 0-2-3-3c-3-3-3-3-5-4-2 0-3-1-3-1 0 0 0-1 1-2 0-1 0-1-2-4l-1-2 1-3 1-2-1-3-1-2 2-3c1-2 1-2 1-4 0-2 0-3 1-3 0 0 1-2 2-5l1-4-1-3c0-1-1-4-2-5l-1-2 2-2 2-2v-3c0-4 1-6 6-11 2-2 4-4 4-4 0-1-1-1-2-2l-1-1 0-1c1-1 2-2 3-3l3-2-1-2c-1-1-2-3-3-4-1-2-2-4-2-5l-1-2 2-2c3-2 5-5 6-9l1-2-2-3-3-4 2-3 1-2-1-2-1-2 1-2c0-3 0-3 0-10l-1-8 5-13c2-7 4-13 4-13 0-1 1-1 3 0 2 1 2 1 3 1 0-1 0-2 0-3 0-2 0-2-1-3l-1-2 4-10 3-10-2-1c0 0-10-1-21-2l-20-2-101-2-101-1-9-7-9-7-11 1-11 2-2-1-1-1h-6-7l-6-2-6-2-32-2c-17-1-32-1-34-2l-2 0-39 41z" horiz-adv-x="1000" />

<glyph glyph-name="map-marker" unicode="&#xe851;" d="M500 371c-57 0-104 47-104 104 0 58 47 104 104 104 58 0 104-46 104-104 0-57-46-104-104-104m0 396c-161 0-292-131-292-292 0-219 292-542 292-542 0 0 292 323 292 542 0 161-131 292-292 292z" horiz-adv-x="1000" />

<glyph glyph-name="medical-bag" unicode="&#xe852;" d="M417 725l-84-83v-84h-125c-48 0-78-41-83-83l-42-417c-5-41 23-83 84-83h666c61 0 89 42 84 83l-42 417c-5 42-39 83-83 83h-125v84l-84 83h-166m0-83h166v-84h-166v84m41-209h84v-125h125v-83h-125v-125h-84v125h-125v83h125v125z" horiz-adv-x="1000" />

<glyph glyph-name="megaphone" unicode="&#xe853;" d="M891 6c-26 0-47 21-47 47v563c0 26 21 47 47 47s47-21 47-47v-563c0-26-21-47-47-47z m-235 63c0-35-28-63-62-63h-281c-35 0-63 28-63 63v124l-125 27v226l689 152v-531l-158 35v-33z m-31 40l-344 77v-117c0-17 14-31 32-31h281c17 0 31 14 31 31v40z m-562 85c-18 0-32 14-32 31v219c0 17 14 31 32 31s31-14 31-31v-219c0-17-14-31-31-31z" horiz-adv-x="1000" />

<glyph glyph-name="menu" unicode="&#xe854;" d="M125 600h750v-83h-750v83m0-208h750v-84h-750v84m0-209h750v-83h-750v83z" horiz-adv-x="1000" />

<glyph glyph-name="music-note" unicode="&#xe855;" d="M500 725v-386c-21 7-42 11-62 11-105 0-188-83-188-187 0-105 83-188 188-188 104 0 187 83 187 188v437h167v125h-292z" horiz-adv-x="1000" />

<glyph glyph-name="newspaper-1" unicode="&#xe856;" d="M875 600v125h-875v-687c0-35 28-63 63-63h843c52 0 94 42 94 94v531h-125z m-62-562h-750v625h750v-625z m-688 500h625v-63h-625z m375-125h250v-63h-250z m0-125h250v-63h-250z m0-125h188v-63h-188z m-375 250h313v-313h-313z" horiz-adv-x="1000" />

<glyph glyph-name="package-down" unicode="&#xe857;" d="M213 642l34 41h500l39-41m-286-521l-229 229h146v83h166v-83h146l-229-229m356 511l-58 70c-11 14-28 23-48 23h-500c-20 0-37-9-48-23l-58-70c-12-14-19-32-19-53v-521c0-45 38-83 83-83h584c46 0 83 38 83 83v521c0 21-7 39-19 53z" horiz-adv-x="1000" />

<glyph glyph-name="pageview" unicode="&#xe858;" d="M699 92l59 59-121 121c17 29 29 62 29 100 0 103-84 187-187 187s-188-84-188-187 84-188 188-188c37 0 70 12 99 29z m135 592c45 0 82-39 82-84v-500c0-45-37-84-82-84h-668c-45 0-82 39-82 84v500c0 45 37 84 82 84h668z m-355-209c56 0 105-47 105-103s-49-106-105-106-104 49-104 106 47 103 104 103z" horiz-adv-x="1000" />

<glyph glyph-name="pencil" unicode="&#xe859;" d="M863 557c16 16 16 43 0 58l-98 98c-15 16-42 16-58 0l-77-76 156-157m-661-349v-156h156l461 461-156 157-461-462z" horiz-adv-x="1000" />

<glyph glyph-name="phone" unicode="&#xe85a;" d="M276 400c60-117 157-214 274-274l92 92c12 11 28 15 43 10 46-15 96-24 148-24 23 0 42-19 42-41v-146c0-23-19-42-42-42-391 0-708 317-708 708 0 23 19 42 42 42h146c22 0 41-19 41-42 0-52 9-102 24-148 5-15 1-31-10-43l-92-92z" horiz-adv-x="1000" />

<glyph glyph-name="phone-classic" unicode="&#xe85b;" d="M500 725c-189 0-361-74-488-195-7-7-12-17-12-29 0-12 5-22 12-30l103-103c8-8 18-12 31-12 10 0 21 4 28 12 33 30 71 56 111 77 14 6 23 20 23 37v129c61 20 125 31 192 31 66 0 131-11 191-30v-129c0-17 10-31 24-38 40-20 77-47 111-77 7-8 18-12 28-12 13 0 23 5 31 12l103 104c7 7 12 18 12 29 0 12-5 22-12 29-128 121-299 195-488 195m-125-167v-125c0 0-250-208-250-333v-167h750v167c0 125-250 333-250 333v125h-83v-83h-84v83h-83m125-208c92 0 167-75 167-167 0-92-75-166-167-166-92 0-167 74-167 166 0 92 75 167 167 167m0-62c-57 0-104-47-104-105 0-57 47-104 104-104 58 0 104 47 104 104 0 58-46 105-104 105z" horiz-adv-x="1000" />

<glyph glyph-name="play" unicode="&#xe85c;" d="M333 636v-583l459 291-459 292z" horiz-adv-x="1000" />

<glyph glyph-name="police" unicode="&#xe85d;" d="M399-95c-174 76-260 155-291 266-21 76-19 132 9 267 29 142 29 149 0 234l-23 68 45 46 46 46 44-21c60-31 171-31 231-2l41 21 41-21c59-29 171-29 231 2l44 21 45-46 46-46-23-68c-30-85-30-91 1-238 30-146 28-224-8-302-46-102-113-156-279-228-55-24-101-44-102-43 0 0-45 20-98 44z m171 292c68-37 70-37 64-15-3 13-11 48-17 77l-12 53 55 50c30 27 55 52 55 55 0 2-34 8-76 11l-75 7-29 67c-15 38-31 68-34 68-3 0-19-30-36-67l-29-66-47-7c-25-3-59-6-74-6s-28-3-28-7c0-4 24-29 54-56l54-49-15-71c-8-39-15-73-15-76 0-2 30 12 68 32l68 38 69-38z" horiz-adv-x="1000" />

<glyph glyph-name="river" unicode="&#xe85e;" d="M24-96c0 40 5 50 33 62 18 8 62 32 98 53 86 50 146 46 247-17 39-25 83-45 98-45 15 0 59 20 98 45 101 63 161 67 247 17 36-21 80-45 98-53 28-12 33-22 33-62 0-47-1-48-37-41-21 5-68 27-106 51-38 24-80 43-95 43-15 0-59-21-100-46-61-38-83-46-138-46-55 0-77 8-138 46-40 25-85 46-100 46-14 0-57-19-95-43-38-24-85-46-106-51-36-7-37-6-37 41z m0 294c0 40 5 50 33 62 18 8 62 32 98 53 86 50 146 46 247-17 39-25 83-45 98-45 15 0 59 20 98 45 101 63 161 67 247 17 36-21 80-45 98-53 28-12 33-22 33-62 0-47-1-48-37-41-21 5-68 27-106 51-38 24-80 43-95 43-15 0-59-21-100-46-61-38-83-46-138-46-55 0-77 8-138 46-40 25-85 46-100 46-14 0-57-19-95-43-38-24-85-46-106-51-36-7-37-6-37 41z m321 257c-9 4-32 19-51 32l-34 24 33 35c29 32 34 33 57 17 94-68 201 65 119 149-26 27-38 31-79 25-41-6-63-22-145-105-88-90-156-136-202-136-14 0-19 13-19 46 0 42 4 48 42 62 25 10 69 48 109 95 86 99 170 146 248 137 62-7 127-54 150-107 19-43 35-41 117 14 29 19 66 39 81 43 74 19 168-36 193-114 47-147-110-279-236-200l-41 25 33 36c26 28 38 33 55 24 74-41 146 57 84 115-32 29-65 25-129-17-32-21-77-43-100-49-32-9-48-22-59-50-23-56-86-100-152-105-31-2-64 0-74 4z" horiz-adv-x="1000" />

<glyph glyph-name="routes" unicode="&#xe85f;" d="M458 433h-250l-83 84 83 83h250v125l42 42 42-42v-42h250l83-83-83-83h-250v-84h250l83-83-83-83h-250v-250c46 0 83-38 83-84h-250c0 46 38 84 83 84v416z" horiz-adv-x="1000" />

<glyph glyph-name="seal" unicode="&#xe860;" d="M850 43l-167 57-58-167-128 250-122-250-57 167-168-57 122 250c-40 50-64 113-64 182 0 161 131 292 292 292 161 0 292-131 292-292 0-69-24-132-64-182l122-250m-558 432l112-56-8-125 104 69 104-68-7 124 111 56-111 56 7 124-104-68-104 69 7-125-111-56z" horiz-adv-x="1000" />

<glyph glyph-name="search" unicode="&#xe861;" d="M396 725c149 0 271-121 271-271 0-67-25-129-65-176l11-11h33l208-209-62-62-209 208v33l-11 11c-47-40-109-65-176-65-150 0-271 122-271 271 0 150 121 271 271 271m0-83c-104 0-188-84-188-188 0-104 84-187 188-187 104 0 187 83 187 187 0 104-83 188-187 188z" horiz-adv-x="1000" />

<glyph glyph-name="send" unicode="&#xe862;" d="M83-25l875 375-875 375v-292l625-83-625-83v-292z" horiz-adv-x="1000" />

<glyph glyph-name="service" unicode="&#xe863;" d="M212-36c0 113-18 176-71 255-55 82-70 130-70 229 1 159 82 287 222 353 29 14 66 25 83 25h31v-169c0-168 0-169-30-183-43-19-72-82-64-140 13-95 109-150 197-113 42 17 50 17 73 1 42-30 61-49 75-74 26-46 91-31 91 20 0 22-45 56-58 43-4-4-28 10-53 30-45 35-47 40-40 89 8 63-19 124-63 144-30 14-30 15-30 189v176l33-8c146-35 262-148 298-292 8-33 36-94 62-134 26-40 45-81 43-91-1-11-24-29-49-42l-46-22v-91c0-80-3-95-30-121-24-25-42-30-97-30h-68v-73-74h-220-219v103z m195 337c-14 13-25 35-25 49s11 35 25 49c13 13 35 24 49 24 31 0 73-42 73-73 0-14-11-36-24-49-14-14-36-24-49-24s-36 10-49 24z" horiz-adv-x="1000" />

<glyph glyph-name="share" unicode="&#xe864;" d="M875 392l-292 291v-166c-291-42-416-250-458-459 104 146 250 213 458 213v-171l292 292z" horiz-adv-x="1000" />

<glyph glyph-name="share-variant" unicode="&#xe865;" d="M750 180c-32 0-60-12-82-32l-297 173c2 9 4 19 4 29 0 10-2 20-4 29l294 171c23-20 52-33 85-33 69 0 125 56 125 125 0 69-56 125-125 125-69 0-125-56-125-125 0-10 2-20 4-29l-294-172c-22 21-52 34-85 34-69 0-125-56-125-125 0-69 56-125 125-125 33 0 63 13 85 34l297-173c-2-9-4-18-4-28 0-67 55-121 122-121 67 0 122 54 122 121 0 67-55 122-122 122z" horiz-adv-x="1000" />

<glyph glyph-name="sitemap" unicode="&#xe866;" d="M375 767v-250h83v-125h-250c-46 0-83-37-83-84v-125h-83v-250h250v250h-84v125h250v-125h-83v-250h250v250h-83v125h250v-125h-84v-250h250v250h-83v125c0 47-37 84-83 84h-250v125h83v250h-250z" horiz-adv-x="1000" />

<glyph glyph-name="spoon-knife" unicode="&#xe867;" d="M219 850c-104 0-188-98-188-219 0-103 62-190 145-213l-31-506c-3-34 24-62 58-62h31c35 0 61 28 59 62l-31 506c83 23 144 110 144 213 0 121-84 219-187 219z m630 0l-52-312h-39l-26 312h-26l-26-312h-39l-52 312h-26v-406c0-17 14-31 31-31h81l-30-501c-3-34 24-62 58-62h31c35 0 61 28 59 62l-31 501h82c17 0 31 14 31 31v406h-26z" horiz-adv-x="1000" />

<glyph glyph-name="tourism" unicode="&#xe868;" d="M207-133c-66 21-113 51-158 102-57 64-58 78-4 47 72-41 153-63 239-64 67-1 112 8 241 51 142 48 167 53 238 46 44-4 101-18 128-31 49-24 114-83 104-94-4-3-35 3-69 14-35 10-112 20-172 21-100 2-115-2-214-46-87-39-124-48-204-52-53-3-111 0-129 6z m117 233c79 82 121 156 150 268 28 103 33 155 15 155-5 0-37-17-69-38-65-42-106-97-130-175l-15-50-32 42c-44 56-54 109-32 162 33 75 106 127 204 144 53 9 53 9 22 25-45 24-133 20-192-9-45-21-51-22-50-4 0 39 49 124 84 146 55 35 129 29 206-17l66-40 17 41c30 70 97 107 154 86 24-9 26-29 3-29-16 0-59-39-77-71-7-11 0-12 30-1 81 27 167-12 204-93 37-77 31-86-29-45-64 44-129 57-181 36l-38-15 45-8c68-12 133-57 158-108 28-57 13-111-53-196l-48-60-14 74c-19 97-34 128-79 169l-38 35-8-96c-10-113-44-301-57-323-16-24-149-64-213-64h-60l57 59z" horiz-adv-x="1000" />

<glyph glyph-name="trivia" unicode="&#xe869;" d="M180-131c-1 0 3 11 9 24 6 13 16 40 22 60 10 36 10 39 9 97-1 32-2 62-3 66-11 52-18 68-49 103-42 48-60 75-88 137-12 29-20 73-22 123 0 27 1 52 2 56 2 4 6 17 8 28 13 67 44 123 95 172 31 30 51 43 89 61 58 27 115 38 200 38 154 0 250-43 324-143 40-54 73-137 81-199 4-35 3-48-5-56-7-9-7-9 21-51 8-12 18-27 22-34 4-7 12-19 17-26 16-26 23-41 23-54 0-15-4-18-40-31-22-8-22-8-16-39 4-18 4-21-2-27-4-4-9-7-13-7-9 0-8-6 2-10 14-6 12-19-5-33l-14-12 7-24c4-14 7-33 7-47 0-22-1-26-11-37-19-22-51-27-109-18-18 3-40 6-50 6-28 0-29-2-40-89-2-17-6-31-8-32-4-2-458-4-463-2z m238 353c1 0 8 21 17 46 8 25 19 52 25 60 12 16 36 28 63 32 24 3 50 18 59 35 7 13 7 15-2 38-2 5 1 6 21 8 33 3 83 14 96 21 12 6 18 16 21 33 1 9 4 13 10 14 5 1 13 7 17 14 19 28 5 80-28 104-12 9-16 15-15 19 1 3-2 11-9 18-8 10-13 13-22 13-10 0-13 2-19 12-4 6-14 16-24 22-14 8-21 9-40 9-21 1-25 1-35 11-16 15-31 20-49 17-8-1-17-4-19-6-3-2-10 0-21 5-23 11-56 12-70 1-8-6-13-7-30-6-22 2-39-5-49-21-5-7-7-8-25-6-19 1-20 1-33-13-7-7-15-16-17-19-3-4-9-6-13-6-12 0-26-15-26-26 0-6-5-14-16-23-18-17-23-32-16-49 4-9 3-11-7-24-22-28-32-89-19-122 3-8 13-21 22-29 12-11 15-15 13-22-3-13 5-34 17-47 11-10 14-11 31-11 11 0 21 1 22 3 4 7 8 4 10-9 4-20 20-47 33-56 17-12 40-11 60 2 9 5 18 12 20 16 3 3 6 5 8 5 1 0 5-13 9-30 6-32 9-37 21-34 3 0 8 1 9 1z" horiz-adv-x="1000" />

<glyph glyph-name="twitter" unicode="&#xe86a;" d="M936 600c-32-15-67-24-103-29 37 22 65 57 79 99-35-20-73-35-114-43-33 36-79 56-131 56-98 0-178-80-178-178 0-15 1-28 4-41-148 7-280 79-368 186-15-26-24-57-24-89 0-62 31-117 79-148-29 0-57 8-81 20 0 0 0 0 0-1 0-87 62-159 144-175-15-4-31-7-48-7-11 0-22 2-33 4 23-71 88-123 167-124-61-49-138-77-222-77-14 0-29 1-43 2 79-50 174-80 274-80 329 0 509 273 509 509 0 8 0 15 0 23 35 25 65 57 89 93z" horiz-adv-x="1000" />

<glyph glyph-name="newspaper" unicode="&#xf4f0;" d="M0 64v572q0 39 28 67t67 27h558q40 0 68-27t28-67v-64h93q39 0 67-28t28-67v-413q0-39-28-67t-67-27h-747q-39 0-67 27t-28 67z m87 43q1-20 15-34t34-15h517q7 0 8 6v528q0 21-15 35t-36 15h-472q-21 0-35-14t-16-35v-486z m74 70q0 18 13 31t31 13h133q18 0 31-13t13-31-13-31-31-13h-133q-18 0-31 13t-13 31z m0 173q0 18 13 31t31 13h338q18 0 31-13t13-31q0-18-13-31t-31-13h-338q-18 0-31 13t-13 31z m0 173q0 18 13 31t31 13h338q18 0 31-13t13-31q0-18-13-31t-31-13h-338q-18 0-31 13t-13 31z m588-416q0-20 14-34t33-15h5q20 1 34 15t14 35v369q0 7-7 7h-93v-377z" horiz-adv-x="937.5" />
</font>
</defs>
</svg>
